<?xml version="1.0" encoding="UTF-8"?>
<!-- Generator: Adobe Illustrator 18.1.0, SVG Export Plug-In . SVG Version: 6.00 Build 0)  -->
<svg version="1.1" id="Layer_1" xmlns="http://www.w3.org/2000/svg" xmlns:xlink="http://www.w3.org/1999/xlink" x="0px" y="0px" width="152px" height="46px" viewBox="0 0 152 46" enable-background="new 0 0 152 46" xml:space="preserve">
<rect x="106" fill="#AAAAAA" width="46" height="46"/>
<rect fill="#FF6000" width="104" height="46"/>
<rect x="102.06" y="27" fill="#FFFFFF" width="6" height="6"/>
<g>
	<g>
		<path fill="#FFFFFF" d="M13.102,17.21c0.305-0.564,0.652-1.021,1.042-1.37c0.39-0.349,0.784-0.622,1.184-0.816    c0.4-0.195,0.789-0.327,1.169-0.397c0.38-0.07,0.71-0.105,0.99-0.105c0.66,0,1.234,0.065,1.724,0.195    c0.49,0.13,0.909,0.299,1.259,0.509c0.35,0.21,0.642,0.449,0.877,0.719c0.235,0.27,0.43,0.544,0.585,0.823    c0.155,0.28,0.277,0.557,0.367,0.831c0.09,0.275,0.165,0.517,0.225,0.726h4.603c-0.04-0.479-0.138-1.006-0.292-1.58    c-0.155-0.574-0.39-1.148-0.705-1.722c-0.315-0.574-0.72-1.131-1.214-1.67c-0.495-0.539-1.092-1.018-1.792-1.438    c-0.7-0.419-1.514-0.754-2.444-1.003c-0.93-0.249-1.994-0.374-3.193-0.374c-0.84,0-1.669,0.097-2.489,0.292    c-0.82,0.195-1.602,0.494-2.346,0.898c-0.745,0.404-1.432,0.919-2.061,1.542c-0.63,0.624-1.177,1.363-1.642,2.216    c-0.465,0.853-0.827,1.829-1.087,2.927c-0.26,1.098-0.39,2.326-0.39,3.684c0,1.757,0.225,3.347,0.675,4.769    c0.45,1.422,1.107,2.638,1.971,3.646c0.864,1.008,1.929,1.785,3.193,2.329c1.264,0.544,2.716,0.816,4.355,0.816    c1.169,0,2.271-0.165,3.306-0.494c1.034-0.329,1.966-0.829,2.796-1.497c0.83-0.669,1.534-1.51,2.114-2.523    c0.579-1.013,0.994-2.209,1.244-3.586h-4.573c-0.1,0.35-0.24,0.759-0.42,1.228c-0.18,0.469-0.452,0.919-0.817,1.348    c-0.365,0.429-0.852,0.794-1.462,1.093c-0.61,0.299-1.399,0.449-2.369,0.449c-0.84,0-1.592-0.172-2.256-0.517    c-0.665-0.344-1.232-0.841-1.702-1.49c-0.47-0.649-0.83-1.442-1.08-2.381c-0.25-0.938-0.375-2.001-0.375-3.189    c0-1.098,0.095-2.046,0.285-2.845C12.549,18.455,12.797,17.774,13.102,17.21z M28.911,20.227h4.947v12.878h4.228V20.227h4.947    v-3.444H28.911V20.227z M49.975,26.846h-0.06V16.783h-4.243v16.322h4.633l5.772-9.838h0.075v9.838h4.228V16.783h-4.453    L49.975,26.846z M78.805,16.783h-5.067l-2.743,4.762l-2.669-4.762h-5.217l5.307,8.011l-5.547,8.31h5.187l2.939-4.911l2.714,4.911    h5.307l-5.562-8.31L78.805,16.783z M85.806,26.846h-0.06V16.783h-4.243v16.322h4.633l5.772-9.838h0.075v9.838h4.228V16.783h-4.453    L85.806,26.846z M127.911,19.658c-0.34-0.619-0.735-1.14-1.184-1.565c-0.45-0.424-0.927-0.769-1.432-1.033    c-0.505-0.264-1.022-0.457-1.552-0.576c-0.53-0.12-1.044-0.18-1.544-0.18c-0.6,0-1.137,0.055-1.612,0.165    c-0.475,0.11-0.907,0.28-1.297,0.509c-0.39,0.23-0.745,0.522-1.065,0.876c-0.32,0.354-0.625,0.776-0.914,1.265h-0.06v-2.336    h-4.048v22.641h4.243v-8.341h0.06c0.27,0.489,0.582,0.896,0.937,1.22c0.355,0.325,0.732,0.582,1.132,0.771    c0.4,0.19,0.81,0.324,1.229,0.404c0.42,0.08,0.834,0.12,1.244,0.12c1.179,0,2.206-0.22,3.081-0.659    c0.875-0.439,1.599-1.053,2.174-1.842c0.575-0.789,1.004-1.732,1.289-2.83c0.285-1.098,0.427-2.306,0.427-3.624    c0-1.058-0.1-1.999-0.3-2.823C128.52,20.998,128.25,20.277,127.911,19.658z M124.545,25.955c-0.035,0.365-0.103,0.734-0.202,1.108    c-0.1,0.374-0.237,0.736-0.412,1.086c-0.175,0.35-0.397,0.659-0.667,0.928c-0.27,0.27-0.595,0.487-0.974,0.651    c-0.38,0.165-0.83,0.247-1.349,0.247c-0.52,0-0.97-0.082-1.349-0.247c-0.38-0.165-0.705-0.382-0.974-0.651    c-0.27-0.269-0.492-0.579-0.667-0.928c-0.175-0.349-0.312-0.711-0.412-1.086c-0.1-0.374-0.167-0.743-0.202-1.108    c-0.035-0.364-0.052-0.701-0.052-1.011c0-0.569,0.065-1.143,0.195-1.722c0.13-0.579,0.337-1.098,0.622-1.557    c0.285-0.459,0.66-0.833,1.124-1.123c0.465-0.289,1.037-0.434,1.717-0.434c0.669,0,1.239,0.145,1.709,0.434    c0.47,0.29,0.847,0.664,1.132,1.123c0.285,0.459,0.492,0.978,0.622,1.557c0.13,0.579,0.195,1.153,0.195,1.722    C124.597,25.253,124.58,25.59,124.545,25.955z M142.153,16.783l-3.343,12.024h-0.06l-3.508-12.024h-4.753l5.982,17.175    c0,0.17-0.04,0.379-0.12,0.629c-0.08,0.25-0.212,0.492-0.397,0.726c-0.185,0.234-0.432,0.437-0.742,0.606    c-0.31,0.17-0.69,0.255-1.139,0.255c-0.17,0-0.38-0.01-0.63-0.03c-0.25-0.02-0.46-0.04-0.63-0.06v3.429    c0.34,0.03,0.632,0.052,0.877,0.067c0.245,0.015,0.507,0.022,0.787,0.022c0.7,0,1.304-0.037,1.814-0.112    c0.51-0.075,0.954-0.207,1.334-0.397c0.38-0.19,0.712-0.447,0.997-0.771c0.285-0.324,0.555-0.739,0.81-1.243    c0.255-0.504,0.512-1.103,0.772-1.797c0.26-0.694,0.55-1.51,0.87-2.448l5.622-16.052H142.153z"/>
	</g>
</g>
</svg>